<svg xmlns="http://www.w3.org/2000/svg" viewBox="0 0 281.52 333.61"><defs><style>.cls-1{fill:#fff;stroke:#750e02;stroke-miterlimit:10;stroke-width:9px;}.cls-2{fill:#750e02;}.cls-3{fill:#d88603;}.cls-4{fill:#ffa300;}.cls-5{fill:#b56d04;}</style></defs><title>logo3</title><g id="Layer_3" data-name="Layer 3"><polygon class="cls-1" points="5.5 147.12 66.78 26.35 180.14 4.91 276.14 116.69 228.39 210.1 240.39 238.27 218.44 225.5 111.2 251.54 5.5 147.12"/><path class="cls-2" d="M127.55,406.26V362.34h16q7.35,0,11.3,2.7a8.68,8.68,0,0,1,3.95,7.59,9,9,0,0,1-2.4,6.22,12.69,12.69,0,0,1-6.14,3.71v.12a12.14,12.14,0,0,1,7.48,3.46,9.67,9.67,0,0,1,2.81,7,11.72,11.72,0,0,1-4.32,9.57q-4.32,3.54-11.79,3.54Zm9.9-36.63V380h4.34a7.28,7.28,0,0,0,4.83-1.48,5.07,5.07,0,0,0,1.76-4.09q0-4.83-7.23-4.84Zm0,17.76V399h5.35a8.27,8.27,0,0,0,5.38-1.59,5.3,5.3,0,0,0,1.94-4.35,5,5,0,0,0-1.91-4.14,8.48,8.48,0,0,0-5.34-1.5Z" transform="translate(-105.56 -73.41)"/><path class="cls-2" d="M195,393.33H174.53q.5,6.84,8.61,6.83a16.72,16.72,0,0,0,9.09-2.45v7q-4.35,2.32-11.3,2.32-7.59,0-11.79-4.21T165,391.07q0-7.81,4.53-12.37a15.09,15.09,0,0,1,11.14-4.57c4.58,0,8.11,1.36,10.62,4.08s3.75,6.4,3.75,11.05Zm-9-5.94q0-6.74-5.45-6.73a5.18,5.18,0,0,0-4,1.93,8.66,8.66,0,0,0-2.07,4.8Z" transform="translate(-105.56 -73.41)"/><path class="cls-2" d="M228.92,393.33H208.46q.49,6.84,8.61,6.83a16.72,16.72,0,0,0,9.09-2.45v7q-4.35,2.32-11.3,2.32-7.59,0-11.79-4.21t-4.19-11.74q0-7.81,4.53-12.37a15.09,15.09,0,0,1,11.14-4.57c4.58,0,8.11,1.36,10.62,4.08s3.75,6.4,3.75,11.05Zm-9-5.94q0-6.74-5.45-6.73a5.18,5.18,0,0,0-4,1.93,8.66,8.66,0,0,0-2.07,4.8Z" transform="translate(-105.56 -73.41)"/><path class="cls-2" d="M275.13,406.26h-10l-18.09-27.59a39.11,39.11,0,0,1-2.21-3.65h-.12q.24,2.33.24,7.11v24.13h-9.34V362.34h10.66l17.42,26.74c.8,1.2,1.54,2.4,2.21,3.58H266a47.87,47.87,0,0,1-.24-6V362.34h9.34Z" transform="translate(-105.56 -73.41)"/><path class="cls-2" d="M312.4,393.33H291.94q.49,6.84,8.6,6.83a16.75,16.75,0,0,0,9.1-2.45v7q-4.35,2.32-11.3,2.32-7.59,0-11.79-4.21t-4.2-11.74q0-7.81,4.54-12.37A15.09,15.09,0,0,1,298,374.13q6.87,0,10.61,4.08t3.76,11.05Zm-9-5.94q0-6.74-5.45-6.73a5.18,5.18,0,0,0-4,1.93,8.66,8.66,0,0,0-2.07,4.8Z" transform="translate(-105.56 -73.41)"/><path class="cls-2" d="M344.24,406.26h-9.15v-4.5H335a10.2,10.2,0,0,1-9.33,5.26,9.8,9.8,0,0,1-7.19-2.58,9.3,9.3,0,0,1-2.61-6.91q0-9.12,10.81-10.53l8.51-1.14q0-5.14-5.57-5.14a19,19,0,0,0-10.66,3.34v-7.29a23.67,23.67,0,0,1,5.53-1.84,29,29,0,0,1,6.38-.8q13.41,0,13.41,13.39Zm-9.09-12.74v-2.11l-5.7.73q-4.71.62-4.71,4.26a3.52,3.52,0,0,0,1.15,2.71,4.41,4.41,0,0,0,3.1,1.05,5.7,5.7,0,0,0,4.44-1.88A6.78,6.78,0,0,0,335.15,393.52Z" transform="translate(-105.56 -73.41)"/><path class="cls-2" d="M370.85,405.89a14.21,14.21,0,0,1-6.46,1.13q-10.23,0-10.22-10.62V382h-5.09V374.9h5.09v-6.77l9.64-2.75v9.52h7V382h-7v12.67q0,4.91,3.89,4.9a6.45,6.45,0,0,0,3.15-.89Z" transform="translate(-105.56 -73.41)"/><g id="Layer_4" data-name="Layer 4"><path d="M327.12,298.55c-.78-.64-4.2-3.52-4.36-8.05a6.72,6.72,0,0,1,1-4.34c1.83-2.46,6.12-3.12,10.59-1.44L343.11,308Z" transform="translate(-105.56 -73.41)"/></g></g><g id="cube"><polygon class="cls-3" points="25.46 141.35 129.29 113.61 212.01 209.1 117.88 234.63 25.46 141.35"/><polygon class="cls-4" points="25.46 141.35 75.92 42.97 177.29 22.29 129.29 113.61 25.46 141.35"/><polygon class="cls-5" points="129.29 113.61 177.29 22.29 258.48 119.05 212.01 209.1 129.29 113.61"/></g></svg>